<!--?xml version="1.0" standalone="no"?--><!-- Generator: Gravit.io --><svg xmlns="http://www.w3.org/2000/svg" xmlns:xlink="http://www.w3.org/1999/xlink" style="isolation: isolate;" viewBox="0 0 1000 1000" width="1000" height="1000" class=""><defs><clipPath id="_clipPath_TtyVnoOhCjWOexex9hbp6tyIJmEHA2OT"><path width="1000" height="1000" d="M0 0 L1000 0 L1000 1000 L0 1000 Z" class="JIWDDjsz_0"></path></clipPath></defs><g clip-path="url(#_clipPath_TtyVnoOhCjWOexex9hbp6tyIJmEHA2OT)"><path width="1000" height="1000" style="fill:rgb(209,209,209)" fill-opacity="0" d="M0 0 L1000 0 L1000 1000 L0 1000 Z" class="JIWDDjsz_1"></path><g><g><path d="M 216.34 416.874 L 783.66 416.874 C 783.66 416.874 783.66 416.874 783.66 416.874 L 783.66 984.194 C 783.66 984.194 783.66 984.194 783.66 984.194 L 216.34 984.194 C 216.34 984.194 216.34 984.194 216.34 984.194 L 216.34 416.874 C 216.34 416.874 216.34 416.874 216.34 416.874 Z" style="stroke:none;fill:#12100E;stroke-miterlimit:10;" class="JIWDDjsz_2"></path><path d=" M 349.931 600.158 C 350.388 595.638 348.665 591.171 345.29 588.13 L 310.914 546.718 L 310.914 540.533 L 417.651 540.533 L 500.153 721.47 L 572.685 540.533 L 674.438 540.533 L 674.438 546.718 L 645.046 574.899 C 642.513 576.83 641.256 580.005 641.781 583.146 L 641.781 790.202 C 641.256 793.344 642.513 796.518 645.046 798.45 L 673.75 826.63 L 673.75 832.816 L 529.372 832.816 L 529.372 826.63 L 559.107 797.762 C 562.029 794.841 562.029 793.982 562.029 789.514 L 562.029 622.152 L 479.355 832.128 L 468.183 832.128 L 371.931 622.152 L 371.931 762.881 C 371.129 768.797 373.094 774.754 377.259 779.033 L 415.932 825.942 L 415.932 832.128 L 306.273 832.128 L 306.273 825.942 L 344.946 779.033 C 349.082 774.747 350.932 768.751 349.931 762.881 L 349.931 600.158 Z " fill="rgb(255,255,255)" class="JIWDDjsz_3"></path></g><path d=" M 381.998 231.477 L 474.696 88.741 C 537.574 45.722 615.338 44.787 679.231 86.282 C 743.125 127.777 773.897 199.2 760.168 274.138 L 667.47 416.874" fill="none" vector-effect="non-scaling-stroke" stroke-width="75" stroke="rgb(0,0,0)" stroke-linejoin="round" stroke-linecap="square" stroke-miterlimit="3" class="JIWDDjsz_4"></path></g></g><style data-made-with="vivus-instant">.JIWDDjsz_0{stroke-dasharray:4000 4002;stroke-dashoffset:4001;animation:JIWDDjsz_draw_0 1520ms linear 0ms infinite,JIWDDjsz_fade 1520ms linear 0ms infinite;}.JIWDDjsz_1{stroke-dasharray:4000 4002;stroke-dashoffset:4001;animation:JIWDDjsz_draw_1 1520ms linear 0ms infinite,JIWDDjsz_fade 1520ms linear 0ms infinite;}.JIWDDjsz_2{stroke-dasharray:2270 2272;stroke-dashoffset:2271;animation:JIWDDjsz_draw_2 1520ms linear 0ms infinite,JIWDDjsz_fade 1520ms linear 0ms infinite;}.JIWDDjsz_3{stroke-dasharray:2414 2416;stroke-dashoffset:2415;animation:JIWDDjsz_draw_3 1520ms linear 0ms infinite,JIWDDjsz_fade 1520ms linear 0ms infinite;}.JIWDDjsz_4{stroke-dasharray:775 777;stroke-dashoffset:776;animation:JIWDDjsz_draw_4 1520ms linear 0ms infinite,JIWDDjsz_fade 1520ms linear 0ms infinite;}@keyframes JIWDDjsz_draw{100%{stroke-dashoffset:0;}}@keyframes JIWDDjsz_fade{0%{stroke-opacity:1;}98.6842105263158%{stroke-opacity:1;}100%{stroke-opacity:0;}}@keyframes JIWDDjsz_draw_0{0%{stroke-dashoffset: 4001}65.78947368421053%{ stroke-dashoffset: 0;}100%{ stroke-dashoffset: 0;}}@keyframes JIWDDjsz_draw_1{0%{stroke-dashoffset: 4001}65.78947368421053%{ stroke-dashoffset: 0;}100%{ stroke-dashoffset: 0;}}@keyframes JIWDDjsz_draw_2{0%{stroke-dashoffset: 2271}65.78947368421053%{ stroke-dashoffset: 0;}100%{ stroke-dashoffset: 0;}}@keyframes JIWDDjsz_draw_3{0%{stroke-dashoffset: 2415}65.78947368421053%{ stroke-dashoffset: 0;}100%{ stroke-dashoffset: 0;}}@keyframes JIWDDjsz_draw_4{0%{stroke-dashoffset: 776}65.78947368421053%{ stroke-dashoffset: 0;}100%{ stroke-dashoffset: 0;}}</style></svg>